<svg width="1248" height="153" viewBox="0 0 1248 153" fill="none" xmlns="http://www.w3.org/2000/svg">
<mask id="path-1-inside-1" fill="white">
<path d="M131.582 2.94229L131.166 80.9135L93.69 17.4437H75.3684L38.1006 78.8118V2.94229H0V150.058H33.9366L85.1538 65.1511L135.122 150.058H169.058L169.475 2.94229H131.582Z"/>
<path d="M198.644 150.058H239.868V2.94229H198.644V150.058Z"/>
<path d="M407.857 150.058V2.94229H373.921L309.587 81.3338V2.94229H269.196V150.058H303.133L367.467 71.6662V150.058H407.857Z"/>
<path d="M436.935 150.058H478.159V2.94229H436.935V150.058Z"/>
<path d="M639.07 2.94229L638.654 80.9135L601.177 17.4437H582.856L545.588 78.8118V2.94229H507.488V150.058H541.424L592.641 65.1511L642.609 150.058H676.546L676.962 2.94229H639.07Z"/>
<path d="M803.777 31.5247H742.15L730.699 2.94229H688.643L752.976 150.058H793.575L858.117 2.94229H815.228L803.777 31.5247ZM791.702 62.2088L772.964 109.286L754.226 62.2088H791.702Z"/>
<path d="M869.804 150.058H911.028V35.9382H980.567V2.94229H869.804V150.058Z"/>
<path d="M996.88 150.058H1038.1V2.94229H996.88V150.058Z"/>
<path d="M1118.65 0C1106.85 0 1095.4 1.47113 1084.3 4.41344C1073.19 7.35574 1064.17 11.2788 1057.23 16.1827L1070.76 46.8668C1077.29 42.5233 1084.85 39.0206 1093.46 36.3585C1102.06 33.6964 1110.53 32.3654 1118.86 32.3654C1134.68 32.3654 1142.59 36.3585 1142.59 44.3448C1142.59 48.5481 1140.3 51.6305 1135.72 53.592C1131.28 55.6937 1124.06 57.8654 1114.07 60.1071C1103.1 62.489 1093.94 65.011 1086.59 67.6731C1079.23 70.4753 1072.91 74.8887 1067.64 80.9135C1062.37 86.9382 1059.73 95.0646 1059.73 105.293C1059.73 114.26 1062.16 122.316 1067.02 129.462C1071.87 136.747 1079.09 142.492 1088.67 146.695C1098.38 150.898 1110.25 153 1124.27 153C1133.85 153 1143.29 151.879 1152.59 149.637C1161.89 147.536 1170.07 144.383 1177.15 140.18L1164.45 109.286C1150.57 116.852 1137.11 120.635 1124.06 120.635C1115.87 120.635 1109.9 119.374 1106.16 116.852C1102.41 114.47 1100.54 111.317 1100.54 107.394C1100.54 103.471 1102.76 100.529 1107.2 98.5673C1111.64 96.6058 1118.79 94.5742 1128.64 92.4725C1139.75 90.0907 1148.91 87.4986 1156.12 84.6964C1163.48 82.0343 1169.8 77.6909 1175.07 71.6662C1180.48 65.7816 1183.19 57.7253 1183.19 47.4973C1183.19 38.6703 1180.76 30.6841 1175.9 23.5385C1171.05 16.3929 1163.76 10.6483 1154.04 6.30495C1144.33 2.10164 1132.53 0 1118.65 0Z"/>
<path d="M1231.22 117.062H1186.46V150.058H1317V117.062H1272.45V2.94229H1231.22V117.062Z"/>
</mask>
<path d="M131.582 2.94229L131.166 80.9135L93.69 17.4437H75.3684L38.1006 78.8118V2.94229H0V150.058H33.9366L85.1538 65.1511L135.122 150.058H169.058L169.475 2.94229H131.582Z" stroke="black" stroke-width="2" mask="url(#path-1-inside-1)"/>
<path d="M198.644 150.058H239.868V2.94229H198.644V150.058Z" stroke="black" stroke-width="2" mask="url(#path-1-inside-1)"/>
<path d="M407.857 150.058V2.94229H373.921L309.587 81.3338V2.94229H269.196V150.058H303.133L367.467 71.6662V150.058H407.857Z" stroke="black" stroke-width="2" mask="url(#path-1-inside-1)"/>
<path d="M436.935 150.058H478.159V2.94229H436.935V150.058Z" stroke="black" stroke-width="2" mask="url(#path-1-inside-1)"/>
<path d="M639.07 2.94229L638.654 80.9135L601.177 17.4437H582.856L545.588 78.8118V2.94229H507.488V150.058H541.424L592.641 65.1511L642.609 150.058H676.546L676.962 2.94229H639.07Z" stroke="black" stroke-width="2" mask="url(#path-1-inside-1)"/>
<path d="M803.777 31.5247H742.15L730.699 2.94229H688.643L752.976 150.058H793.575L858.117 2.94229H815.228L803.777 31.5247ZM791.702 62.2088L772.964 109.286L754.226 62.2088H791.702Z" stroke="black" stroke-width="2" mask="url(#path-1-inside-1)"/>
<path d="M869.804 150.058H911.028V35.9382H980.567V2.94229H869.804V150.058Z" stroke="black" stroke-width="2" mask="url(#path-1-inside-1)"/>
<path d="M996.88 150.058H1038.1V2.94229H996.88V150.058Z" stroke="black" stroke-width="2" mask="url(#path-1-inside-1)"/>
<path d="M1118.65 0C1106.85 0 1095.4 1.47113 1084.3 4.41344C1073.19 7.35574 1064.17 11.2788 1057.23 16.1827L1070.76 46.8668C1077.29 42.5233 1084.85 39.0206 1093.46 36.3585C1102.06 33.6964 1110.53 32.3654 1118.86 32.3654C1134.68 32.3654 1142.59 36.3585 1142.59 44.3448C1142.59 48.5481 1140.3 51.6305 1135.72 53.592C1131.28 55.6937 1124.06 57.8654 1114.07 60.1071C1103.1 62.489 1093.94 65.011 1086.59 67.6731C1079.23 70.4753 1072.91 74.8887 1067.64 80.9135C1062.37 86.9382 1059.73 95.0646 1059.73 105.293C1059.73 114.26 1062.16 122.316 1067.02 129.462C1071.87 136.747 1079.09 142.492 1088.67 146.695C1098.38 150.898 1110.25 153 1124.27 153C1133.85 153 1143.29 151.879 1152.59 149.637C1161.89 147.536 1170.07 144.383 1177.15 140.18L1164.45 109.286C1150.57 116.852 1137.11 120.635 1124.06 120.635C1115.87 120.635 1109.9 119.374 1106.16 116.852C1102.41 114.47 1100.54 111.317 1100.54 107.394C1100.54 103.471 1102.76 100.529 1107.2 98.5673C1111.64 96.6058 1118.79 94.5742 1128.64 92.4725C1139.75 90.0907 1148.91 87.4986 1156.12 84.6964C1163.48 82.0343 1169.8 77.6909 1175.07 71.6662C1180.48 65.7816 1183.19 57.7253 1183.19 47.4973C1183.19 38.6703 1180.76 30.6841 1175.9 23.5385C1171.05 16.3929 1163.76 10.6483 1154.04 6.30495C1144.33 2.10164 1132.53 0 1118.65 0Z" stroke="black" stroke-width="2" mask="url(#path-1-inside-1)"/>
<path d="M1231.22 117.062H1186.46V150.058H1317V117.062H1272.45V2.94229H1231.22V117.062Z" stroke="black" stroke-width="2" mask="url(#path-1-inside-1)"/>
</svg>
