<svg width="26" height="26" viewBox="0 0 26 26" fill="none" xmlns="http://www.w3.org/2000/svg">
<path d="M13.7133 1.76824C13.6129 1.45922 13.3249 1.25 13 1.25C12.6751 1.25 12.3871 1.45922 12.2867 1.76824L9.76093 9.5418H1.58732C1.2624 9.5418 0.974436 9.75102 0.87403 10.06C0.773624 10.3691 0.883618 10.7076 1.14648 10.8986L7.75907 15.7029L5.23328 23.4764C5.13288 23.7855 5.24287 24.124 5.50574 24.315C5.7686 24.506 6.12455 24.506 6.38742 24.315L13 19.5106L19.6126 24.315C19.8755 24.506 20.2314 24.506 20.4943 24.315C20.7571 24.124 20.8671 23.7855 20.7667 23.4764L18.2409 15.7029L24.8535 10.8986C25.1164 10.7076 25.2264 10.3691 25.126 10.06C25.0256 9.75102 24.7376 9.5418 24.4127 9.5418H16.2391L13.7133 1.76824Z" fill="#E0E0E0" stroke="#E0E0E0" stroke-width="1.5" stroke-linejoin="round"/>
</svg>
